<svg width="109" height="39" viewBox="0 0 109 39" fill="none" xmlns="http://www.w3.org/2000/svg">
<path d="M24.7031 36.009C22.5244 34.7785 20.7356 32.9601 19.541 30.7615C18.3018 28.4414 17.6727 25.8444 17.7127 23.2144C17.6754 20.5376 18.3747 17.9021 19.7341 15.5959C21.0936 13.2897 23.061 11.4017 25.4211 10.1383C27.8408 8.83849 30.5506 8.17355 33.2971 8.20566C35.9508 8.15695 38.57 8.81176 40.8885 10.1035C43.0632 11.3279 44.8514 13.137 46.0506 15.3257C47.3087 17.6554 47.9459 20.2697 47.901 22.9171C47.9147 25.553 47.2035 28.1419 45.845 30.4009C44.4823 32.6944 42.5392 34.5883 40.2116 35.8919C37.8015 37.2562 35.0732 37.958 32.3039 37.9258C29.6452 37.9721 27.022 37.3105 24.7031 36.009ZM39.7245 35.6168C41.4904 34.551 42.9386 33.0318 43.9187 31.2169C44.9575 29.314 45.4891 27.1757 45.4623 25.0078C45.4569 22.3314 44.8528 19.69 43.6941 17.2773C42.5851 14.872 40.8947 12.7805 38.7756 11.1916C36.7491 9.65244 34.2697 8.8282 31.7251 8.84776C29.6476 8.80133 27.5985 9.33724 25.8097 10.3949C24.021 11.4525 22.5639 12.9896 21.6033 14.8323C20.5993 16.7528 20.0905 18.8935 20.123 21.0603C20.1204 23.7662 20.7314 26.4374 21.9101 28.8731C23.0217 31.2701 24.7186 33.3488 26.8445 34.9177C28.8515 36.4224 31.2948 37.231 33.8032 37.2204C35.8879 37.2484 37.9388 36.6929 39.7245 35.6168Z" fill="#F2F0E9"/>
<path d="M58.7066 32.6785H59.2001L58.055 38.0367H47.8984V37.2965C53.573 37.2965 50.4479 8.14258 63.6062 8.14258V8.84161C54.2309 8.84161 55.3822 32.8145 49.8722 37.3092H55.0944C57.685 37.2839 58.7066 32.6785 58.7066 32.6785Z" fill="#F2F0E9"/>
<path d="M72.4051 37.2829V38.0357C69.242 38.0357 66.525 36.0619 66.525 30.593V10.1027C66.525 8.70458 63.6055 8.83743 63.6055 8.83743V8.12891H70.8426V8.61918H68.5114V30.5772C68.5114 36.0904 70.1846 37.2829 72.4051 37.2829Z" fill="#F2F0E9"/>
<path d="M108.999 37.4885V38.0357H102.752V37.5011C102.752 37.5011 105.096 37.4189 105.096 36.0619V23.2199H101.272L98.7634 31.4438C97.7766 34.6512 97.0775 37.0361 96.913 37.4885H99.0102V38.0357H93.8164V37.5011C93.8164 37.5011 96.1602 37.3366 96.6126 35.9386L104.52 10.1153C104.52 8.71724 102.588 8.635 102.588 8.635V8.12891H107.07V37.4885H108.999ZM105.096 10.555L101.477 22.5367H105.096V10.555Z" fill="#F2F0E9"/>
<path d="M24.7031 36.009C22.5244 34.7785 20.7356 32.9601 19.541 30.7615C18.3018 28.4414 17.6727 25.8444 17.7127 23.2144C17.6754 20.5376 18.3747 17.9021 19.7341 15.5959C21.0936 13.2897 23.061 11.4017 25.4211 10.1383C27.8408 8.83849 30.5506 8.17355 33.2971 8.20566C35.9508 8.15695 38.57 8.81176 40.8885 10.1035C43.0632 11.3279 44.8514 13.137 46.0506 15.3257C47.3087 17.6554 47.9459 20.2697 47.901 22.9171C47.9147 25.553 47.2035 28.1419 45.845 30.4009C44.4823 32.6944 42.5392 34.5883 40.2116 35.8919C37.8015 37.2562 35.0732 37.958 32.3039 37.9258C29.6452 37.9721 27.022 37.3105 24.7031 36.009ZM39.7245 35.6168C41.4904 34.551 42.9386 33.0318 43.9187 31.2169C44.9575 29.314 45.4891 27.1757 45.4623 25.0078C45.4569 22.3314 44.8528 19.69 43.6941 17.2773C42.5851 14.872 40.8947 12.7805 38.7756 11.1916C36.7491 9.65244 34.2697 8.8282 31.7251 8.84776C29.6476 8.80133 27.5985 9.33724 25.8097 10.3949C24.021 11.4525 22.5639 12.9896 21.6033 14.8323C20.5993 16.7528 20.0905 18.8935 20.123 21.0603C20.1204 23.7662 20.7314 26.4374 21.9101 28.8731C23.0217 31.2701 24.7186 33.3488 26.8445 34.9177C28.8515 36.4224 31.2948 37.231 33.8032 37.2204C35.8879 37.2484 37.9388 36.6929 39.7245 35.6168Z" fill="#F2F0E9"/>
<path d="M58.7066 32.6785H59.2001L58.055 38.0367H47.8984V37.2965C53.573 37.2965 50.4479 8.14258 63.6062 8.14258V8.84161C54.2309 8.84161 55.3822 32.8145 49.8722 37.3092H55.0944C57.685 37.2839 58.7066 32.6785 58.7066 32.6785Z" fill="#F2F0E9"/>
<path d="M72.4051 37.2829V38.0357C69.242 38.0357 66.525 36.0619 66.525 30.593V10.1027C66.525 8.70458 63.6055 8.83743 63.6055 8.83743V8.12891H70.8426V8.61918H68.5114V30.5772C68.5114 36.0904 70.1846 37.2829 72.4051 37.2829Z" fill="#F2F0E9"/>
<path d="M70.4084 3.21051C69.6062 3.1469 68.8574 2.78348 68.3111 2.19263C67.7648 1.60178 67.4611 0.826846 67.4604 0.0221413V0C67.455 0.800253 67.1493 1.56931 66.604 2.15503C66.0587 2.74075 65.3134 3.10049 64.5156 3.16306C65.3172 3.22743 66.0653 3.59117 66.6109 4.18195C67.1566 4.77272 67.4598 5.54723 67.4604 6.35143V6.4052C67.4595 5.59941 67.7625 4.8229 68.309 4.23071C68.8554 3.63852 69.6051 3.27421 70.4084 3.21051Z" fill="#F2F0E9"/>
<path d="M17.2007 8.12891V8.61918H14.8189V37.4473H17.2007V37.9819H10.5583V37.4473C10.5583 37.4473 12.899 37.3651 12.899 36.0113V10.0995C12.899 8.70142 11.2479 8.62551 10.5583 8.61918C8.78699 8.61918 4.30176 8.61918 4.30176 8.61918V37.4473H6.64243V37.9819H0V37.4473C0 37.4473 2.34067 37.3651 2.34067 36.0113V10.0995C2.34067 8.70142 0 8.61918 0 8.61918V8.12891H17.2007Z" fill="#F2F0E9"/>
<path d="M93.5378 8.61918H91.1528V37.4853H93.5378V38.0357H86.8764V37.5011C86.8764 37.5011 89.2202 37.4189 89.2202 36.0619V19.1079H80.6262V37.4885H82.97V38.0357H76.3086V37.5011C76.3086 37.5011 78.6524 37.4189 78.6524 36.0619V10.1248C78.6524 8.72672 76.3086 8.64449 76.3086 8.64449V8.12891H82.97V8.61918H80.6262V18.4247H89.2202V10.1027C89.2202 8.70458 86.8764 8.62234 86.8764 8.62234V8.12891H93.5378V8.61918Z" fill="#F2F0E9"/>
</svg>
