<svg width="216" height="76" viewBox="0 0 216 76" fill="none" xmlns="http://www.w3.org/2000/svg">
<path d="M48.9577 71.3557C44.6401 68.9172 41.0954 65.3138 38.7281 60.9569C36.2725 56.3592 35.0258 51.2129 35.1051 46.0011C35.0311 40.6967 36.4168 35.4739 39.1109 30.9039C41.8049 26.3339 45.7035 22.5925 50.3805 20.0887C55.1755 17.513 60.5455 16.1953 65.9881 16.2589C71.2467 16.1624 76.4371 17.46 81.0316 20.0198C85.3411 22.4462 88.8848 26.0312 91.2612 30.3685C93.7542 34.9852 95.017 40.1659 94.928 45.4119C94.9552 50.6354 93.5458 55.7659 90.8538 60.2423C88.1532 64.7873 84.3028 68.5404 79.6902 71.1238C74.9143 73.8273 69.5076 75.2179 64.0199 75.1542C58.7512 75.2458 53.5528 73.9349 48.9577 71.3557ZM78.725 70.5784C82.2244 68.4665 85.0943 65.4559 87.0365 61.8595C89.095 58.0885 90.1484 53.8511 90.0953 49.5552C90.0847 44.2513 88.8875 39.017 86.5914 34.2359C84.3937 29.4693 81.044 25.3248 76.8445 22.176C72.8288 19.1259 67.9155 17.4926 62.8729 17.5314C58.7559 17.4394 54.6954 18.5013 51.1507 20.5972C47.6059 22.693 44.7184 25.739 42.8149 29.3906C40.8254 33.1964 39.8171 37.4386 39.8814 41.7326C39.8763 47.0947 41.0872 52.3881 43.4229 57.2148C45.6257 61.9648 48.9884 66.084 53.2012 69.1932C57.1784 72.175 62.0202 73.7772 66.991 73.7564C71.1221 73.8117 75.1864 72.711 78.725 70.5784Z" fill="#111111"/>
<path d="M116.336 64.7565H117.314L115.045 75.3747H94.918V73.908C106.163 73.908 99.9701 16.1348 126.045 16.1348V17.52C107.467 17.52 109.748 65.0261 98.8293 73.9331H109.178C114.312 73.8829 116.336 64.7565 116.336 64.7565Z" fill="#111111"/>
<path d="M143.485 73.8826V75.3744C137.217 75.3744 131.832 71.4631 131.832 60.6255V20.0207C131.832 17.2502 126.047 17.5134 126.047 17.5134V16.1094H140.388V17.0809H135.769V60.5942C135.769 71.5195 139.085 73.8826 143.485 73.8826Z" fill="#111111"/>
<path d="M216.001 74.29V75.3744H203.621V74.3151C203.621 74.3151 208.266 74.1521 208.266 71.4631V46.0146H200.688L195.717 62.3117C193.762 68.6675 192.376 73.3937 192.051 74.29H196.206V75.3744H185.914V74.3151C185.914 74.3151 190.559 73.9892 191.455 71.2187L207.125 20.0458C207.125 17.2752 203.296 17.1123 203.296 17.1123V16.1094H212.177V74.29H216.001ZM208.266 20.917L201.095 44.6607H208.266V20.917Z" fill="#111111"/>
<path d="M48.9577 71.3557C44.6401 68.9172 41.0954 65.3138 38.7281 60.9569C36.2725 56.3592 35.0258 51.2129 35.1051 46.0011C35.0311 40.6967 36.4168 35.4739 39.1109 30.9039C41.8049 26.3339 45.7035 22.5925 50.3805 20.0887C55.1755 17.513 60.5455 16.1953 65.9881 16.2589C71.2467 16.1624 76.4371 17.46 81.0316 20.0198C85.3411 22.4462 88.8848 26.0312 91.2612 30.3685C93.7542 34.9852 95.017 40.1659 94.928 45.4119C94.9552 50.6354 93.5458 55.7659 90.8538 60.2423C88.1532 64.7873 84.3028 68.5404 79.6902 71.1238C74.9143 73.8273 69.5076 75.2179 64.0199 75.1542C58.7512 75.2458 53.5528 73.9349 48.9577 71.3557ZM78.725 70.5784C82.2244 68.4665 85.0943 65.4559 87.0365 61.8595C89.095 58.0885 90.1484 53.8511 90.0953 49.5552C90.0847 44.2513 88.8875 39.017 86.5914 34.2359C84.3937 29.4693 81.044 25.3248 76.8445 22.176C72.8288 19.1259 67.9155 17.4926 62.8729 17.5314C58.7559 17.4394 54.6954 18.5013 51.1507 20.5972C47.6059 22.693 44.7184 25.739 42.8149 29.3906C40.8254 33.1964 39.8171 37.4386 39.8814 41.7326C39.8763 47.0947 41.0872 52.3881 43.4229 57.2148C45.6257 61.9648 48.9884 66.084 53.2012 69.1932C57.1784 72.175 62.0202 73.7772 66.991 73.7564C71.1221 73.8117 75.1864 72.711 78.725 70.5784Z" fill="#111111"/>
<path d="M116.336 64.7565H117.314L115.045 75.3747H94.918V73.908C106.163 73.908 99.9701 16.1348 126.045 16.1348V17.52C107.467 17.52 109.748 65.0261 98.8293 73.9331H109.178C114.312 73.8829 116.336 64.7565 116.336 64.7565Z" fill="#111111"/>
<path d="M143.485 73.8826V75.3744C137.217 75.3744 131.832 71.4631 131.832 60.6255V20.0207C131.832 17.2502 126.047 17.5134 126.047 17.5134V16.1094H140.388V17.0809H135.769V60.5942C135.769 71.5195 139.085 73.8826 143.485 73.8826Z" fill="#111111"/>
<path d="M139.529 6.36214C137.939 6.23608 136.456 5.51591 135.373 4.34505C134.29 3.17418 133.688 1.63853 133.687 0.0438766V0C133.676 1.58583 133.071 3.10983 131.99 4.27054C130.909 5.43125 129.433 6.14411 127.852 6.26812C129.44 6.39567 130.922 7.11649 132.004 8.2872C133.085 9.45791 133.686 10.9927 133.687 12.5864V12.6929C133.685 11.0961 134.286 9.55735 135.369 8.38383C136.452 7.21031 137.937 6.48837 139.529 6.36214Z" fill="#111111"/>
<path d="M34.086 16.1094V17.0809H29.3661V74.2086H34.086V75.2679H20.923V74.2086C20.923 74.2086 25.5614 74.0456 25.5614 71.3628V20.0144C25.5614 17.2439 22.2894 17.0935 20.923 17.0809C17.4128 17.0809 8.52464 17.0809 8.52464 17.0809V74.2086H13.163V75.2679H0V74.2086C0 74.2086 4.63841 74.0456 4.63841 71.3628V20.0144C4.63841 17.2439 0 17.0809 0 17.0809V16.1094H34.086Z" fill="#111111"/>
<path d="M185.357 17.0809H180.631V74.2838H185.357V75.3744H172.157V74.3151C172.157 74.3151 176.801 74.1521 176.801 71.4631V37.866H159.771V74.29H164.415V75.3744H151.215V74.3151C151.215 74.3151 155.86 74.1521 155.86 71.4631V20.0646C155.86 17.294 151.215 17.1311 151.215 17.1311V16.1094H164.415V17.0809H159.771V36.5121H176.801V20.0207C176.801 17.2502 172.157 17.0872 172.157 17.0872V16.1094H185.357V17.0809Z" fill="#111111"/>
</svg>
