<svg width="1720" height="600" viewBox="0 0 1720 600" fill="none" xmlns="http://www.w3.org/2000/svg">
<path d="M227.733 278.434C227.733 341.948 202.429 396.389 166.745 418.474C159.584 422.421 151.954 425.452 144.036 427.498C140.172 428.078 136.263 428.311 132.358 428.196C125.779 428.267 119.224 427.394 112.893 425.603C94.3499 418.406 78.6062 405.458 67.9755 388.661V590.869H104.958V598.647H0V590.869C0 590.869 36.9823 589.573 36.9823 568.186V159.383C36.9823 137.148 0 135.851 0 135.851V128.074H68.1252V168.257C84.9943 143.629 107.703 128.074 132.358 128.074C184.911 128.074 227.733 195.477 227.733 278.434ZM193.995 266.12C182.965 192.884 146.631 138.444 112.893 144.925C79.155 151.406 60.3395 216.216 70.7205 290.1C81.1015 363.984 118.084 417.826 151.822 411.295C185.56 404.764 204.625 340.004 193.995 266.12V266.12Z" fill="#F2F0E9"/>
<path d="M389.936 567.488C355.504 548.052 327.27 519.296 308.485 484.531C288.876 447.997 278.897 407.079 279.488 365.629C278.896 323.421 289.945 281.864 311.425 245.511C332.905 209.159 363.986 179.413 401.265 159.532C439.444 139.046 482.201 128.566 525.537 129.072C567.41 128.28 608.744 138.602 645.318 158.984C679.615 178.36 707.795 206.942 726.669 241.492C746.511 278.215 756.565 319.418 755.865 361.142C756.14 402.646 745.006 443.429 723.674 479.047C702.18 515.189 671.519 545.026 634.787 565.544C596.764 587.062 553.714 598.139 510.016 597.65C468.019 598.418 426.574 588.008 389.936 567.488V567.488ZM627.051 561.356C654.904 544.545 677.752 520.603 693.23 492.009C709.608 462.011 717.994 428.312 717.585 394.146C717.507 351.96 707.975 310.327 689.687 272.302C672.216 234.388 645.56 201.421 612.129 176.383C580.135 152.177 541.016 139.24 500.882 139.591C467.529 138.988 434.675 147.745 406.056 164.867C378.523 181.533 356.084 205.412 341.175 233.915C325.387 264.147 317.393 297.833 317.918 331.928C317.882 374.575 327.523 416.676 346.116 455.067C363.725 492.875 390.588 525.64 424.223 550.338C455.901 574.035 494.446 586.776 534.022 586.632C566.779 586.998 598.992 578.246 627.051 561.356V561.356Z" fill="#F2F0E9"/>
<path d="M926.503 515.041H934.289L916.122 599.295H755.865V587.629C845.402 587.629 796.092 128.074 1003.71 128.074V139.092C855.783 139.092 873.949 516.986 787.008 587.778H869.408C910.283 587.629 926.503 515.041 926.503 515.041Z" fill="#F2F0E9"/>
<path d="M1142.56 587.629V599.295C1092.65 599.295 1049.78 568.186 1049.78 481.988V159.183C1049.78 137.148 1003.71 139.242 1003.71 139.242V128.074H1117.95V135.851H1080.97V481.988C1080.92 568.834 1107.52 587.629 1142.56 587.629Z" fill="#F2F0E9"/>
<path d="M1453.99 476.155C1529.9 621.33 1384.56 659.568 1384.56 472.267V369.168L1272.32 153.35V590.869H1309.3V599.295H1204.19V590.869C1204.19 590.869 1241.18 589.573 1241.18 568.186V159.383C1241.18 137.347 1204.19 136.051 1204.19 136.051V128.074H1272.32L1384.56 343.992V159.183C1384.56 137.148 1347.58 135.851 1347.58 135.851V128.074H1452.69V135.851H1415.71V402.92L1453.99 476.155ZM1440.36 476.155L1415.71 427.498V472.366C1415.71 618.189 1502.25 597.35 1440.36 476.155V476.155Z" fill="#F2F0E9"/>
<path d="M1720 590.869V599.295H1621.38V590.869C1621.38 590.869 1658.36 589.573 1658.36 568.186V365.978H1598.02L1558.45 495.598C1542.87 546.15 1531.84 583.74 1529.25 590.869H1562.14V599.295H1480.59V590.869C1480.59 590.869 1517.57 588.277 1524.71 566.241L1649.48 159.183C1649.48 137.148 1618.98 135.851 1618.98 135.851V128.074H1689.71V590.869H1720ZM1658.36 166.312L1601.27 354.91H1658.36V166.312Z" fill="#F2F0E9"/>
<path d="M1111.07 50.6019C1098.4 49.6105 1086.58 43.886 1077.96 34.571C1069.34 25.2559 1064.55 13.0355 1064.55 0.348978V0C1064.45 12.6017 1059.63 24.7101 1051.04 33.9382C1042.45 43.1664 1030.71 48.8448 1018.14 49.854C1030.79 50.8573 1042.6 56.587 1051.21 65.9008C1059.82 75.2146 1064.6 87.4283 1064.6 100.107V100.805C1064.61 88.1349 1069.4 75.9335 1078.01 66.6303C1086.62 57.327 1098.42 51.6044 1111.07 50.6019V50.6019Z" fill="#F2F0E9"/>
</svg>
